<?xml version="1.0" encoding="UTF-8" standalone="no"?>
<!DOCTYPE svg PUBLIC "-//W3C//DTD SVG 1.1//EN" "http://www.w3.org/Graphics/SVG/1.1/DTD/svg11.dtd">
<svg width="100%" height="100%" viewBox="0 0 1080 1080" version="1.1" xmlns="http://www.w3.org/2000/svg" xmlns:xlink="http://www.w3.org/1999/xlink" xml:space="preserve" xmlns:serif="http://www.serif.com/" style="fill-rule:evenodd;clip-rule:evenodd;stroke-linejoin:round;stroke-miterlimit:2;">
    <circle cx="540" cy="540" r="540"/>
    <circle cx="539.5" cy="539.5" r="450.5" style="fill:white;"/>
    <g transform="matrix(1,0,0,1,6,-4.75)">
        <path d="M481.3,713.5L481.3,656.8C481.3,627.4 485.2,604 493,586.6C500.8,568.6 511,553.6 523.6,541.6C536.2,529.6 549.1,517.9 562.3,506.5C580.9,490.9 596.8,474.7 610,457.9C623.8,440.5 630.7,418 630.7,390.4C630.7,370.6 625.9,353.2 616.3,338.2C607.3,323.2 595.3,311.5 580.3,303.1C565.3,294.7 549.1,290.5 531.7,290.5C511.9,290.5 494.2,295 478.6,304C463.6,312.4 451,323.8 440.8,338.2C430.6,352 422.5,367.3 416.5,384.1L347.2,351.7C351.4,338.5 358.3,324.1 367.9,308.5C378.1,292.3 391,277 406.6,262.6C422.2,248.2 441.1,236.5 463.3,227.5C485.5,217.9 511,213.1 539.8,213.1C574,213.1 604.6,219.7 631.6,232.9C658.6,246.1 679.9,265.3 695.5,290.5C711.7,315.7 719.8,346.6 719.8,383.2C719.8,412 715.6,436 707.2,455.2C698.8,474.4 688,491.2 674.8,505.6C662.2,520 648.4,534.1 633.4,547.9C620.8,558.7 609.1,569.5 598.3,580.3C588.1,590.5 580,603.1 574,618.1C568,632.5 565,651.7 565,675.7L565,713.5L481.3,713.5ZM524.5,876.4C508.9,876.4 496,871.9 485.8,862.9C475.6,853.9 470.5,842.2 470.5,827.8C470.5,814.6 475.6,803.5 485.8,794.5C496,784.9 508.9,780.1 524.5,780.1C539.5,780.1 551.8,784.9 561.4,794.5C571.6,803.5 576.7,814.6 576.7,827.8C576.7,842.2 571.6,853.9 561.4,862.9C551.8,871.9 539.5,876.4 524.5,876.4Z" style="fill-rule:nonzero;"/>
    </g>
</svg>
